<svg xmlns="http://www.w3.org/2000/svg" width="820" height="220" viewBox="0 0 820 220">
  <rect x="0" y="0" width="820" height="220" fill="#f4f6f9"/>
  <rect x="20" y="20" width="780" height="180" rx="10" fill="#ffffff" stroke="#d0d8e6"/>
  <text x="40" y="55" font-family="Arial" font-size="16" fill="#1B4F8A">Option 1 — Native Multi-Select</text>
  <rect x="40" y="80" width="220" height="110" rx="6" fill="#f8fafc" stroke="#d0d8e6"/>
  <text x="52" y="104" font-family="Arial" font-size="12" fill="#4a5a72">Make (multi)</text>
  <rect x="52" y="112" width="196" height="66" rx="4" fill="#ffffff" stroke="#d0d8e6"/>
  <text x="62" y="132" font-family="Arial" font-size="11" fill="#1a2332">BMW</text>
  <rect x="54" y="122" width="10" height="10" fill="#1B4F8A"/>
  <text x="62" y="148" font-family="Arial" font-size="11" fill="#1a2332">FCA</text>
  <rect x="54" y="138" width="10" height="10" fill="#1B4F8A"/>
  <text x="62" y="164" font-family="Arial" font-size="11" fill="#1a2332">Renault</text>
  <rect x="54" y="154" width="10" height="10" fill="#ffffff" stroke="#d0d8e6"/>

  <rect x="290" y="80" width="220" height="110" rx="6" fill="#f8fafc" stroke="#d0d8e6"/>
  <text x="302" y="104" font-family="Arial" font-size="12" fill="#4a5a72">Classification (multi)</text>
  <rect x="302" y="112" width="196" height="66" rx="4" fill="#ffffff" stroke="#d0d8e6"/>
  <text x="312" y="132" font-family="Arial" font-size="11" fill="#1a2332">T-WPO</text>
  <rect x="304" y="122" width="10" height="10" fill="#1B4F8A"/>
  <text x="312" y="148" font-family="Arial" font-size="11" fill="#1a2332">Observation</text>
  <rect x="304" y="138" width="10" height="10" fill="#ffffff" stroke="#d0d8e6"/>
  <text x="312" y="164" font-family="Arial" font-size="11" fill="#1a2332">Include</text>
  <rect x="304" y="154" width="10" height="10" fill="#1B4F8A"/>

  <text x="550" y="110" font-family="Arial" font-size="12" fill="#4a5a72">Pros</text>
  <text x="550" y="130" font-family="Arial" font-size="11" fill="#1a2332">• Simple, fast</text>
  <text x="550" y="148" font-family="Arial" font-size="11" fill="#1a2332">• Built-in multi-select</text>
  <text x="550" y="166" font-family="Arial" font-size="11" fill="#1a2332">• Less custom styling</text>
</svg>
