<svg xmlns="http://www.w3.org/2000/svg" width="820" height="260" viewBox="0 0 820 260">
  <rect x="0" y="0" width="820" height="260" fill="#f4f6f9"/>
  <rect x="20" y="20" width="780" height="220" rx="10" fill="#ffffff" stroke="#d0d8e6"/>
  <text x="40" y="55" font-family="Arial" font-size="16" fill="#1B4F8A">Option 2 — Dropdown with Checkboxes</text>

  <rect x="40" y="80" width="220" height="36" rx="6" fill="#f8fafc" stroke="#d0d8e6"/>
  <text x="52" y="103" font-family="Arial" font-size="12" fill="#4a5a72">Make (multi)</text>
  <text x="210" y="103" font-family="Arial" font-size="12" fill="#4a5a72">▼</text>

  <rect x="40" y="118" width="220" height="110" rx="6" fill="#ffffff" stroke="#d0d8e6"/>
  <text x="58" y="140" font-family="Arial" font-size="11" fill="#1a2332">BMW</text>
  <rect x="48" y="132" width="10" height="10" fill="#1B4F8A"/>
  <text x="58" y="160" font-family="Arial" font-size="11" fill="#1a2332">FCA</text>
  <rect x="48" y="152" width="10" height="10" fill="#1B4F8A"/>
  <text x="58" y="180" font-family="Arial" font-size="11" fill="#1a2332">Renault</text>
  <rect x="48" y="172" width="10" height="10" fill="#ffffff" stroke="#d0d8e6"/>

  <rect x="290" y="80" width="220" height="36" rx="6" fill="#f8fafc" stroke="#d0d8e6"/>
  <text x="302" y="103" font-family="Arial" font-size="12" fill="#4a5a72">Classification (multi)</text>
  <text x="460" y="103" font-family="Arial" font-size="12" fill="#4a5a72">▼</text>

  <rect x="290" y="118" width="220" height="110" rx="6" fill="#ffffff" stroke="#d0d8e6"/>
  <text x="308" y="140" font-family="Arial" font-size="11" fill="#1a2332">T-WPO</text>
  <rect x="298" y="132" width="10" height="10" fill="#1B4F8A"/>
  <text x="308" y="160" font-family="Arial" font-size="11" fill="#1a2332">Observation</text>
  <rect x="298" y="152" width="10" height="10" fill="#ffffff" stroke="#d0d8e6"/>
  <text x="308" y="180" font-family="Arial" font-size="11" fill="#1a2332">Include</text>
  <rect x="298" y="172" width="10" height="10" fill="#1B4F8A"/>

  <text x="550" y="120" font-family="Arial" font-size="12" fill="#4a5a72">Pros</text>
  <text x="550" y="140" font-family="Arial" font-size="11" fill="#1a2332">• Cleaner look</text>
  <text x="550" y="158" font-family="Arial" font-size="11" fill="#1a2332">• Easier multi-select</text>
  <text x="550" y="176" font-family="Arial" font-size="11" fill="#1a2332">• Custom UI needed</text>
</svg>
